<?xml version="1.0" encoding="UTF-8" standalone="no"?>
<!DOCTYPE svg PUBLIC "-//W3C//DTD SVG 1.1//EN" "http://www.w3.org/Graphics/SVG/1.1/DTD/svg11.dtd">
<svg width="100%" height="100%" viewBox="0 0 800 600" version="1.1" xmlns="http://www.w3.org/2000/svg" xmlns:xlink="http://www.w3.org/1999/xlink" xml:space="preserve" xmlns:serif="http://www.serif.com/" style="fill-rule:evenodd;clip-rule:evenodd;stroke-linecap:round;stroke-linejoin:round;stroke-miterlimit:1.5;">
    <g transform="matrix(1,0,0,1.06786,0,-37.6216)">
        <rect x="60.317" y="35.231" width="688.721" height="519.181"/>
    </g>
    <g transform="matrix(0.475314,0,0,0.475314,246.421,198.138)">
        <circle cx="323.111" cy="214.305" r="59.577" style="fill:url(#_Radial1);"/>
    </g>
    <path d="M800,0L0,0L0,600L800,600L800,0ZM451.8,89.751C451.284,89.775 450.765,89.788 450.244,89.788C432.512,89.788 418.116,75.392 418.116,57.66C418.116,39.928 432.512,25.533 450.244,25.533C467.975,25.533 482.371,39.928 482.371,57.66C482.371,69.397 476.064,79.672 466.659,85.277L499.465,181.79C500.873,181.601 502.308,181.504 503.766,181.504C521.497,181.504 535.893,195.9 535.893,213.631C535.893,220.222 533.904,226.352 530.494,231.454L621.597,336.233C625.996,333.966 630.987,332.686 636.275,332.686C654.007,332.686 668.403,347.082 668.403,364.814C668.403,382.545 654.007,396.941 636.275,396.941C618.543,396.941 604.147,382.545 604.147,364.814C604.147,357.983 606.283,351.648 609.922,346.442L519.029,241.904C514.489,244.362 509.289,245.759 503.766,245.759C496.82,245.759 490.387,243.55 485.131,239.798L429.175,286.537C431.07,290.631 432.128,295.193 432.128,300C432.128,315.058 421.746,327.71 407.754,331.184L407.754,406.41C421.746,409.884 432.128,422.536 432.128,437.594C432.128,440.53 431.733,443.375 430.994,446.078L507.208,484.703C512.987,479.132 520.845,475.704 529.498,475.704C547.23,475.704 561.626,490.1 561.626,507.831C561.626,525.563 547.23,539.959 529.498,539.959C511.767,539.959 497.371,525.563 497.371,507.831C497.371,504.365 497.921,501.026 498.938,497.898L423.389,459.61C417.529,465.833 409.215,469.722 400,469.722C384.901,469.722 372.222,459.284 368.789,445.237L226.818,446.623C222.968,460.051 210.589,469.89 195.93,469.89C178.199,469.89 163.803,455.494 163.803,437.762C163.803,420.03 178.199,405.634 195.93,405.634C197.028,405.634 198.113,405.69 199.18,405.797L254.552,257.768C246.925,251.892 242.007,242.668 242.007,232.304C242.007,214.572 256.403,200.176 274.134,200.176C291.866,200.176 306.262,214.572 306.262,232.304C306.262,235.126 305.897,237.865 305.213,240.472L375.279,279.489C381.174,272.393 390.063,267.872 400,267.872C407.313,267.872 414.058,270.321 419.462,274.443L475.038,228.022C472.863,223.692 471.638,218.804 471.638,213.631C471.638,202.886 476.925,193.366 485.037,187.532L451.8,89.751ZM297.756,254.071L368.535,293.484C368.101,295.588 367.872,297.768 367.872,300C367.872,315.058 378.254,327.71 392.246,331.184L392.246,406.41C380.775,409.257 371.731,418.274 368.844,429.727L227.367,431.109C225.61,422.777 220.62,415.632 213.774,411.048L268.784,263.987C270.524,264.279 272.312,264.431 274.134,264.431C283.472,264.431 291.884,260.439 297.756,254.071Z" style="fill:rgb(238,238,238);"/>
    <path d="M451.8,89.751C451.284,89.775 450.765,89.788 450.244,89.788C432.512,89.788 418.116,75.392 418.116,57.66C418.116,39.928 432.512,25.533 450.244,25.533C467.975,25.533 482.371,39.928 482.371,57.66C482.371,69.397 476.064,79.672 466.659,85.277L499.465,181.79C500.873,181.601 502.308,181.504 503.766,181.504C521.497,181.504 535.893,195.9 535.893,213.631C535.893,220.222 533.904,226.352 530.494,231.454L621.597,336.233C625.996,333.966 630.987,332.686 636.275,332.686C654.007,332.686 668.403,347.082 668.403,364.814C668.403,382.545 654.007,396.941 636.275,396.941C618.543,396.941 604.147,382.545 604.147,364.814C604.147,357.983 606.283,351.648 609.922,346.442L519.029,241.904C514.489,244.362 509.289,245.759 503.766,245.759C496.82,245.759 490.387,243.55 485.131,239.798L429.175,286.537C431.07,290.631 432.128,295.193 432.128,300C432.128,315.058 421.746,327.71 407.754,331.184L407.754,406.41C421.746,409.884 432.128,422.536 432.128,437.594C432.128,440.53 431.733,443.375 430.994,446.078L507.208,484.703C512.987,479.132 520.845,475.704 529.498,475.704C547.23,475.704 561.626,490.1 561.626,507.831C561.626,525.563 547.23,539.959 529.498,539.959C511.767,539.959 497.371,525.563 497.371,507.831C497.371,504.365 497.921,501.026 498.938,497.898L423.389,459.61C417.529,465.833 409.215,469.722 400,469.722C384.901,469.722 372.222,459.284 368.789,445.237L226.818,446.623C222.968,460.051 210.589,469.89 195.93,469.89C178.199,469.89 163.803,455.494 163.803,437.762C163.803,420.03 178.199,405.634 195.93,405.634C197.028,405.634 198.113,405.69 199.18,405.797L254.552,257.768C246.925,251.892 242.007,242.668 242.007,232.304C242.007,214.572 256.403,200.176 274.134,200.176C291.866,200.176 306.262,214.572 306.262,232.304C306.262,235.126 305.897,237.865 305.213,240.472L375.279,279.489C381.174,272.393 390.063,267.872 400,267.872C407.313,267.872 414.058,270.321 419.462,274.443L475.038,228.022C472.863,223.692 471.638,218.804 471.638,213.631C471.638,202.886 476.925,193.366 485.037,187.532L451.8,89.751ZM297.756,254.071L368.535,293.484C368.101,295.588 367.872,297.768 367.872,300C367.872,315.058 378.254,327.71 392.246,331.184L392.246,406.41C380.775,409.257 371.731,418.274 368.844,429.727L227.367,431.109C225.61,422.777 220.62,415.632 213.774,411.048L268.784,263.987C270.524,264.279 272.312,264.431 274.134,264.431C283.472,264.431 291.884,260.439 297.756,254.071Z" style="fill:none;stroke:black;stroke-width:7.5px;"/>
    <g transform="matrix(0.757458,0,0,0.757458,329.525,104.667)">
        <g transform="matrix(51.0382,0,0,51.0382,77.7398,277.206)">
            <path d="M0.308,-0.729C0.364,-0.729 0.411,-0.714 0.449,-0.685C0.488,-0.656 0.516,-0.613 0.536,-0.558C0.555,-0.502 0.565,-0.435 0.565,-0.357C0.565,-0.278 0.555,-0.211 0.536,-0.155C0.516,-0.099 0.488,-0.056 0.449,-0.027C0.411,0.003 0.364,0.017 0.308,0.017C0.252,0.017 0.204,0.003 0.166,-0.027C0.127,-0.056 0.099,-0.099 0.079,-0.155C0.06,-0.211 0.051,-0.278 0.051,-0.357C0.051,-0.435 0.06,-0.502 0.079,-0.558C0.099,-0.613 0.127,-0.656 0.166,-0.685C0.204,-0.714 0.251,-0.729 0.308,-0.729ZM0.308,-0.611C0.283,-0.611 0.263,-0.603 0.248,-0.586C0.233,-0.569 0.221,-0.542 0.214,-0.505C0.207,-0.467 0.203,-0.418 0.203,-0.357C0.203,-0.298 0.205,-0.25 0.209,-0.214L0.383,-0.577C0.375,-0.59 0.365,-0.598 0.353,-0.604C0.341,-0.609 0.326,-0.611 0.308,-0.611ZM0.308,-0.099C0.332,-0.099 0.352,-0.108 0.367,-0.124C0.382,-0.141 0.393,-0.168 0.401,-0.206C0.408,-0.243 0.411,-0.294 0.411,-0.357C0.411,-0.392 0.41,-0.425 0.409,-0.456L0.245,-0.118C0.253,-0.112 0.261,-0.107 0.272,-0.104C0.282,-0.101 0.294,-0.099 0.308,-0.099Z" style="fill-rule:nonzero;"/>
        </g>
    </g>
    <g transform="matrix(0.757458,0,0,0.757458,379.504,-138.226)">
        <g transform="matrix(51.0382,0,0,51.0382,77.7398,277.206)">
            <path d="M0.496,-0.271L0.568,-0.271L0.568,-0.149L0.496,-0.149L0.496,-0L0.341,-0L0.34,-0.149L0.046,-0.149L0.046,-0.257L0.243,-0.729L0.381,-0.678L0.213,-0.271L0.341,-0.271L0.359,-0.442L0.496,-0.442L0.496,-0.271Z" style="fill-rule:nonzero;"/>
        </g>
    </g>
    <g transform="matrix(0.757458,0,0,0.757458,125.547,241.192)">
        <g transform="matrix(51.0382,0,0,51.0382,77.7398,277.206)">
            <path d="M0.528,-0.711L0.51,-0.595L0.25,-0.595L0.25,-0.442C0.267,-0.449 0.284,-0.455 0.302,-0.459C0.321,-0.462 0.338,-0.464 0.355,-0.464C0.392,-0.464 0.426,-0.455 0.456,-0.436C0.486,-0.417 0.51,-0.39 0.528,-0.355C0.546,-0.321 0.555,-0.28 0.555,-0.233C0.555,-0.185 0.543,-0.143 0.52,-0.105C0.496,-0.067 0.464,-0.037 0.421,-0.015C0.379,0.007 0.331,0.017 0.276,0.017C0.226,0.017 0.181,0.008 0.141,-0.011C0.101,-0.03 0.067,-0.056 0.04,-0.089L0.133,-0.174C0.15,-0.152 0.17,-0.135 0.192,-0.124C0.214,-0.112 0.238,-0.107 0.263,-0.107C0.288,-0.107 0.31,-0.112 0.329,-0.122C0.348,-0.133 0.362,-0.147 0.372,-0.166C0.383,-0.185 0.388,-0.206 0.388,-0.231C0.388,-0.273 0.379,-0.304 0.362,-0.323C0.345,-0.343 0.322,-0.352 0.292,-0.352C0.262,-0.352 0.233,-0.344 0.205,-0.329L0.095,-0.329L0.095,-0.711L0.528,-0.711Z" style="fill-rule:nonzero;"/>
        </g>
    </g>
    <g transform="matrix(0.757458,0,0,0.757458,458.709,311.281)">
        <g transform="matrix(51.0382,0,0,51.0382,77.7398,277.206)">
            <path d="M0.546,-0.601L0.271,0.016L0.117,-0.031L0.382,-0.589L0.07,-0.589L0.07,-0.711L0.546,-0.711L0.546,-0.601Z" style="fill-rule:nonzero;"/>
        </g>
    </g>
    <g transform="matrix(0.757458,0,0,0.757458,565.416,168.59)">
        <g transform="matrix(51.0382,0,0,51.0382,77.7398,277.206)">
            <path d="M0.369,-0.476C0.406,-0.476 0.44,-0.467 0.471,-0.449C0.501,-0.43 0.525,-0.403 0.542,-0.368C0.559,-0.332 0.568,-0.29 0.568,-0.241C0.568,-0.193 0.558,-0.15 0.537,-0.11C0.516,-0.071 0.487,-0.04 0.449,-0.017C0.41,0.006 0.366,0.017 0.316,0.017C0.256,0.017 0.206,0.002 0.166,-0.028C0.127,-0.058 0.098,-0.098 0.079,-0.149C0.061,-0.2 0.051,-0.258 0.051,-0.322C0.051,-0.401 0.064,-0.472 0.088,-0.533C0.113,-0.595 0.149,-0.643 0.195,-0.677C0.242,-0.712 0.297,-0.729 0.359,-0.729C0.418,-0.729 0.47,-0.714 0.514,-0.683L0.452,-0.585C0.439,-0.594 0.425,-0.601 0.409,-0.606C0.393,-0.611 0.378,-0.613 0.363,-0.613C0.337,-0.613 0.313,-0.606 0.293,-0.59C0.272,-0.574 0.256,-0.552 0.243,-0.521C0.23,-0.491 0.222,-0.455 0.22,-0.412C0.241,-0.433 0.264,-0.449 0.29,-0.46C0.317,-0.471 0.343,-0.476 0.369,-0.476ZM0.318,-0.098C0.347,-0.098 0.369,-0.111 0.384,-0.136C0.399,-0.16 0.406,-0.192 0.406,-0.232C0.406,-0.279 0.399,-0.312 0.386,-0.333C0.373,-0.354 0.353,-0.365 0.327,-0.365C0.308,-0.365 0.289,-0.36 0.271,-0.351C0.252,-0.341 0.235,-0.328 0.22,-0.31C0.221,-0.261 0.224,-0.222 0.231,-0.191C0.237,-0.16 0.247,-0.137 0.261,-0.122C0.275,-0.106 0.294,-0.098 0.318,-0.098Z" style="fill-rule:nonzero;"/>
        </g>
    </g>
    <g transform="matrix(0.757458,0,0,0.757458,432.47,18.3078)">
        <g transform="matrix(51.0382,0,0,51.0382,77.7398,277.206)">
            <path d="M0.432,-0.711L0.432,-0.123L0.565,-0.123L0.565,-0L0.103,-0L0.103,-0.123L0.274,-0.123L0.274,-0.551L0.128,-0.46L0.059,-0.571L0.289,-0.711L0.432,-0.711Z" style="fill-rule:nonzero;"/>
        </g>
    </g>
    <g transform="matrix(0.757458,0,0,0.757458,329.44,242.704)">
        <g transform="matrix(51.0382,0,0,51.0382,77.7398,277.206)">
            <path d="M0.283,-0.729C0.335,-0.729 0.379,-0.719 0.416,-0.701C0.453,-0.683 0.481,-0.658 0.5,-0.627C0.519,-0.596 0.528,-0.562 0.528,-0.525C0.528,-0.486 0.519,-0.449 0.502,-0.412C0.484,-0.376 0.455,-0.335 0.414,-0.291C0.373,-0.246 0.316,-0.19 0.241,-0.124L0.545,-0.124L0.527,-0L0.055,-0L0.055,-0.115C0.138,-0.196 0.201,-0.259 0.244,-0.304C0.286,-0.35 0.316,-0.389 0.335,-0.421C0.354,-0.452 0.363,-0.482 0.363,-0.511C0.363,-0.54 0.355,-0.563 0.338,-0.579C0.321,-0.596 0.298,-0.604 0.268,-0.604C0.241,-0.604 0.218,-0.598 0.198,-0.587C0.178,-0.576 0.158,-0.558 0.14,-0.532L0.041,-0.607C0.069,-0.646 0.102,-0.676 0.142,-0.697C0.181,-0.718 0.228,-0.729 0.283,-0.729Z" style="fill-rule:nonzero;"/>
        </g>
    </g>
    <g transform="matrix(0.757458,0,0,0.757458,203.509,36.9705)">
        <g transform="matrix(51.0382,0,0,51.0382,77.7398,277.206)">
            <path d="M0.279,-0.729C0.329,-0.729 0.372,-0.721 0.408,-0.704C0.445,-0.688 0.473,-0.666 0.492,-0.638C0.511,-0.611 0.521,-0.58 0.521,-0.547C0.521,-0.503 0.508,-0.467 0.483,-0.438C0.457,-0.41 0.422,-0.389 0.376,-0.376C0.488,-0.361 0.544,-0.302 0.544,-0.2C0.544,-0.16 0.532,-0.123 0.51,-0.09C0.488,-0.057 0.456,-0.031 0.414,-0.012C0.373,0.008 0.324,0.017 0.269,0.017C0.216,0.017 0.169,0.008 0.127,-0.01C0.085,-0.028 0.049,-0.055 0.018,-0.089L0.11,-0.174C0.149,-0.129 0.198,-0.107 0.258,-0.107C0.294,-0.107 0.323,-0.116 0.345,-0.134C0.366,-0.152 0.377,-0.178 0.377,-0.211C0.377,-0.248 0.367,-0.275 0.347,-0.292C0.326,-0.309 0.296,-0.317 0.257,-0.317L0.192,-0.317L0.211,-0.429L0.257,-0.429C0.289,-0.429 0.315,-0.437 0.335,-0.453C0.354,-0.469 0.364,-0.492 0.364,-0.522C0.364,-0.548 0.355,-0.569 0.336,-0.585C0.317,-0.6 0.292,-0.608 0.261,-0.608C0.234,-0.608 0.209,-0.603 0.186,-0.593C0.163,-0.582 0.141,-0.567 0.119,-0.547L0.036,-0.633C0.102,-0.697 0.183,-0.729 0.279,-0.729Z" style="fill-rule:nonzero;"/>
        </g>
    </g>
    <defs>
        <radialGradient id="_Radial1" cx="0" cy="0" r="1" gradientUnits="userSpaceOnUse" gradientTransform="matrix(59.5768,0,-0,59.5768,323.111,214.305)"><stop offset="0" style="stop-color:rgb(0,78,187);stop-opacity:1"/><stop offset="1" style="stop-color:rgb(17,223,255);stop-opacity:1"/></radialGradient>
    </defs>
</svg>
