<svg id="e4kqluff6pvn1" xmlns="http://www.w3.org/2000/svg" xmlns:xlink="http://www.w3.org/1999/xlink" viewBox="0 0 800 600" shape-rendering="geometricPrecision" text-rendering="geometricPrecision"><defs><radialGradient id="e4kqluff6pvn3-fill" cx="0" cy="0" r="1" spreadMethod="pad" gradientUnits="userSpaceOnUse" gradientTransform="matrix(59.57680000000000 0 0 59.57680000000000 0 0)"><stop id="e4kqluff6pvn3-fill-0" offset="0%" stop-color="rgb(0,78,187)"/><stop id="e4kqluff6pvn3-fill-1" offset="100%" stop-color="rgb(17,223,255)"/></radialGradient></defs><rect id="e4kqluff6pvn2" width="716.166143" height="541.593027" rx="0" ry="0" transform="matrix(1 0 0 1 60.31700000000001 12.81897300000003)" clip-rule="evenodd" fill="rgb(0,0,0)" fill-rule="evenodd" stroke="none" stroke-width="1" stroke-linecap="round" stroke-linejoin="round" stroke-miterlimit="1.500000"/><circle id="e4kqluff6pvn3" r="28.129002" transform="matrix(1 0 0 1 399.65180625164157 299.99999999578102)" clip-rule="evenodd" fill="url(#e4kqluff6pvn3-fill)" fill-rule="evenodd" stroke="none" stroke-width="1" stroke-linecap="round" stroke-linejoin="round" stroke-miterlimit="1.500000"/><path id="e4kqluff6pvn4" d="M800,0L0,0L0,600L800,600L800,0ZM451.800000,89.751000C451.284000,89.775000,450.765000,89.788000,450.244000,89.788000C432.512000,89.788000,418.116000,75.392000,418.116000,57.660000C418.116000,39.928000,432.512000,25.533000,450.244000,25.533000C467.975000,25.533000,482.371000,39.928000,482.371000,57.660000C482.371000,69.397000,476.064000,79.672000,466.659000,85.277000L499.465000,181.790000C500.873000,181.601000,502.308000,181.504000,503.766000,181.504000C521.497000,181.504000,535.893000,195.900000,535.893000,213.631000C535.893000,220.222000,533.904000,226.352000,530.494000,231.454000L621.597000,336.233000C625.996000,333.966000,630.987000,332.686000,636.275000,332.686000C654.007000,332.686000,668.403000,347.082000,668.403000,364.814000C668.403000,382.545000,654.007000,396.941000,636.275000,396.941000C618.543000,396.941000,604.147000,382.545000,604.147000,364.814000C604.147000,357.983000,606.283000,351.648000,609.922000,346.442000L519.029000,241.904000C514.489000,244.362000,509.289000,245.759000,503.766000,245.759000C496.820000,245.759000,490.387000,243.550000,485.131000,239.798000L429.175000,286.537000C431.070000,290.631000,432.128000,295.193000,432.128000,300C432.128000,315.058000,421.746000,327.710000,407.754000,331.184000L407.754000,406.410000C421.746000,409.884000,432.128000,422.536000,432.128000,437.594000C432.128000,440.530000,431.733000,443.375000,430.994000,446.078000L507.208000,484.703000C512.987000,479.132000,520.845000,475.704000,529.498000,475.704000C547.230000,475.704000,561.626000,490.100000,561.626000,507.831000C561.626000,525.563000,547.230000,539.959000,529.498000,539.959000C511.767000,539.959000,497.371000,525.563000,497.371000,507.831000C497.371000,504.365000,497.921000,501.026000,498.938000,497.898000L423.389000,459.610000C417.529000,465.833000,409.215000,469.722000,400,469.722000C384.901000,469.722000,372.222000,459.284000,368.789000,445.237000L226.818000,446.623000C222.968000,460.051000,210.589000,469.890000,195.930000,469.890000C178.199000,469.890000,163.803000,455.494000,163.803000,437.762000C163.803000,420.030000,178.199000,405.634000,195.930000,405.634000C197.028000,405.634000,198.113000,405.690000,199.180000,405.797000L254.552000,257.768000C246.925000,251.892000,242.007000,242.668000,242.007000,232.304000C242.007000,214.572000,256.403000,200.176000,274.134000,200.176000C291.866000,200.176000,306.262000,214.572000,306.262000,232.304000C306.262000,235.126000,305.897000,237.865000,305.213000,240.472000L375.279000,279.489000C381.174000,272.393000,390.063000,267.872000,400,267.872000C407.313000,267.872000,414.058000,270.321000,419.462000,274.443000L475.038000,228.022000C472.863000,223.692000,471.638000,218.804000,471.638000,213.631000C471.638000,202.886000,476.925000,193.366000,485.037000,187.532000L451.800000,89.751000ZM297.756000,254.071000L368.535000,293.484000C368.101000,295.588000,367.872000,297.768000,367.872000,300C367.872000,315.058000,378.254000,327.710000,392.246000,331.184000L392.246000,406.410000C380.775000,409.257000,371.731000,418.274000,368.844000,429.727000L227.367000,431.109000C225.610000,422.777000,220.620000,415.632000,213.774000,411.048000L268.784000,263.987000C270.524000,264.279000,272.312000,264.431000,274.134000,264.431000C283.472000,264.431000,291.884000,260.439000,297.756000,254.071000Z" clip-rule="evenodd" fill="rgb(238,238,238)" fill-rule="evenodd" stroke="none" stroke-width="1" stroke-linecap="round" stroke-linejoin="round" stroke-miterlimit="1.500000"/><path id="e4kqluff6pvn5" d="M451.800000,89.751000C451.284000,89.775000,450.765000,89.788000,450.244000,89.788000C432.512000,89.788000,418.116000,75.392000,418.116000,57.660000C418.116000,39.928000,432.512000,25.533000,450.244000,25.533000C467.975000,25.533000,482.371000,39.928000,482.371000,57.660000C482.371000,69.397000,476.064000,79.672000,466.659000,85.277000L499.465000,181.790000C500.873000,181.601000,502.308000,181.504000,503.766000,181.504000C521.497000,181.504000,535.893000,195.900000,535.893000,213.631000C535.893000,220.222000,533.904000,226.352000,530.494000,231.454000L621.597000,336.233000C625.996000,333.966000,630.987000,332.686000,636.275000,332.686000C654.007000,332.686000,668.403000,347.082000,668.403000,364.814000C668.403000,382.545000,654.007000,396.941000,636.275000,396.941000C618.543000,396.941000,604.147000,382.545000,604.147000,364.814000C604.147000,357.983000,606.283000,351.648000,609.922000,346.442000L519.029000,241.904000C514.489000,244.362000,509.289000,245.759000,503.766000,245.759000C496.820000,245.759000,490.387000,243.550000,485.131000,239.798000L429.175000,286.537000C431.070000,290.631000,432.128000,295.193000,432.128000,300C432.128000,315.058000,421.746000,327.710000,407.754000,331.184000L407.754000,406.410000C421.746000,409.884000,432.128000,422.536000,432.128000,437.594000C432.128000,440.530000,431.733000,443.375000,430.994000,446.078000L507.208000,484.703000C512.987000,479.132000,520.845000,475.704000,529.498000,475.704000C547.230000,475.704000,561.626000,490.100000,561.626000,507.831000C561.626000,525.563000,547.230000,539.959000,529.498000,539.959000C511.767000,539.959000,497.371000,525.563000,497.371000,507.831000C497.371000,504.365000,497.921000,501.026000,498.938000,497.898000L423.389000,459.610000C417.529000,465.833000,409.215000,469.722000,400,469.722000C384.901000,469.722000,372.222000,459.284000,368.789000,445.237000L226.818000,446.623000C222.968000,460.051000,210.589000,469.890000,195.930000,469.890000C178.199000,469.890000,163.803000,455.494000,163.803000,437.762000C163.803000,420.030000,178.199000,405.634000,195.930000,405.634000C197.028000,405.634000,198.113000,405.690000,199.180000,405.797000L254.552000,257.768000C246.925000,251.892000,242.007000,242.668000,242.007000,232.304000C242.007000,214.572000,256.403000,200.176000,274.134000,200.176000C291.866000,200.176000,306.262000,214.572000,306.262000,232.304000C306.262000,235.126000,305.897000,237.865000,305.213000,240.472000L375.279000,279.489000C381.174000,272.393000,390.063000,267.872000,400,267.872000C407.313000,267.872000,414.058000,270.321000,419.462000,274.443000L475.038000,228.022000C472.863000,223.692000,471.638000,218.804000,471.638000,213.631000C471.638000,202.886000,476.925000,193.366000,485.037000,187.532000L451.800000,89.751000ZM297.756000,254.071000L368.535000,293.484000C368.101000,295.588000,367.872000,297.768000,367.872000,300C367.872000,315.058000,378.254000,327.710000,392.246000,331.184000L392.246000,406.410000C380.775000,409.257000,371.731000,418.274000,368.844000,429.727000L227.367000,431.109000C225.610000,422.777000,220.620000,415.632000,213.774000,411.048000L268.784000,263.987000C270.524000,264.279000,272.312000,264.431000,274.134000,264.431000C283.472000,264.431000,291.884000,260.439000,297.756000,254.071000Z" clip-rule="evenodd" fill="none" fill-rule="evenodd" stroke="rgb(0,0,0)" stroke-width="7.500000" stroke-linecap="round" stroke-linejoin="round" stroke-miterlimit="1.500000"/><g id="e4kqluff6pvn6" transform="matrix(0.75745800000000 0 0 0.75745800000000 329.52499999999998 104.66700000000000)" clip-rule="evenodd"><g id="e4kqluff6pvn7" transform="matrix(51.03820000000000 0 0 51.03820000000000 77.73980000000000 277.20600000000002)" clip-rule="evenodd"><path id="e4kqluff6pvn8" d="M0.308000,-0.729000C0.364000,-0.729000,0.411000,-0.714000,0.449000,-0.685000C0.488000,-0.656000,0.516000,-0.613000,0.536000,-0.558000C0.555000,-0.502000,0.565000,-0.435000,0.565000,-0.357000C0.565000,-0.278000,0.555000,-0.211000,0.536000,-0.155000C0.516000,-0.099000,0.488000,-0.056000,0.449000,-0.027000C0.411000,0.003000,0.364000,0.017000,0.308000,0.017000C0.252000,0.017000,0.204000,0.003000,0.166000,-0.027000C0.127000,-0.056000,0.099000,-0.099000,0.079000,-0.155000C0.060000,-0.211000,0.051000,-0.278000,0.051000,-0.357000C0.051000,-0.435000,0.060000,-0.502000,0.079000,-0.558000C0.099000,-0.613000,0.127000,-0.656000,0.166000,-0.685000C0.204000,-0.714000,0.251000,-0.729000,0.308000,-0.729000ZM0.308000,-0.611000C0.283000,-0.611000,0.263000,-0.603000,0.248000,-0.586000C0.233000,-0.569000,0.221000,-0.542000,0.214000,-0.505000C0.207000,-0.467000,0.203000,-0.418000,0.203000,-0.357000C0.203000,-0.298000,0.205000,-0.250000,0.209000,-0.214000L0.383000,-0.577000C0.375000,-0.590000,0.365000,-0.598000,0.353000,-0.604000C0.341000,-0.609000,0.326000,-0.611000,0.308000,-0.611000ZM0.308000,-0.099000C0.332000,-0.099000,0.352000,-0.108000,0.367000,-0.124000C0.382000,-0.141000,0.393000,-0.168000,0.401000,-0.206000C0.408000,-0.243000,0.411000,-0.294000,0.411000,-0.357000C0.411000,-0.392000,0.410000,-0.425000,0.409000,-0.456000L0.245000,-0.118000C0.253000,-0.112000,0.261000,-0.107000,0.272000,-0.104000C0.282000,-0.101000,0.294000,-0.099000,0.308000,-0.099000Z" clip-rule="evenodd" fill="rgb(0,0,0)" stroke="none" stroke-width="1" stroke-linecap="round" stroke-linejoin="round" stroke-miterlimit="1.500000"/></g></g><g id="e4kqluff6pvn9" transform="matrix(0.75745800000000 0 0 0.75745800000000 379.50400000000002 -138.22600000000000)" clip-rule="evenodd"><g id="e4kqluff6pvn10" transform="matrix(51.03820000000000 0 0 51.03820000000000 77.73980000000000 277.20600000000002)" clip-rule="evenodd"><path id="e4kqluff6pvn11" d="M0.496000,-0.271000L0.568000,-0.271000L0.568000,-0.149000L0.496000,-0.149000L0.496000,0L0.341000,0L0.340000,-0.149000L0.046000,-0.149000L0.046000,-0.257000L0.243000,-0.729000L0.381000,-0.678000L0.213000,-0.271000L0.341000,-0.271000L0.359000,-0.442000L0.496000,-0.442000L0.496000,-0.271000Z" clip-rule="evenodd" fill="rgb(0,0,0)" stroke="none" stroke-width="1" stroke-linecap="round" stroke-linejoin="round" stroke-miterlimit="1.500000"/></g></g><g id="e4kqluff6pvn12" transform="matrix(0.75745800000000 0 0 0.75745800000000 125.54700000000000 241.19200000000001)" clip-rule="evenodd"><g id="e4kqluff6pvn13" transform="matrix(51.03820000000000 0 0 51.03820000000000 77.73980000000000 277.20600000000002)" clip-rule="evenodd"><path id="e4kqluff6pvn14" d="M0.528000,-0.711000L0.510000,-0.595000L0.250000,-0.595000L0.250000,-0.442000C0.267000,-0.449000,0.284000,-0.455000,0.302000,-0.459000C0.321000,-0.462000,0.338000,-0.464000,0.355000,-0.464000C0.392000,-0.464000,0.426000,-0.455000,0.456000,-0.436000C0.486000,-0.417000,0.510000,-0.390000,0.528000,-0.355000C0.546000,-0.321000,0.555000,-0.280000,0.555000,-0.233000C0.555000,-0.185000,0.543000,-0.143000,0.520000,-0.105000C0.496000,-0.067000,0.464000,-0.037000,0.421000,-0.015000C0.379000,0.007000,0.331000,0.017000,0.276000,0.017000C0.226000,0.017000,0.181000,0.008000,0.141000,-0.011000C0.101000,-0.030000,0.067000,-0.056000,0.040000,-0.089000L0.133000,-0.174000C0.150000,-0.152000,0.170000,-0.135000,0.192000,-0.124000C0.214000,-0.112000,0.238000,-0.107000,0.263000,-0.107000C0.288000,-0.107000,0.310000,-0.112000,0.329000,-0.122000C0.348000,-0.133000,0.362000,-0.147000,0.372000,-0.166000C0.383000,-0.185000,0.388000,-0.206000,0.388000,-0.231000C0.388000,-0.273000,0.379000,-0.304000,0.362000,-0.323000C0.345000,-0.343000,0.322000,-0.352000,0.292000,-0.352000C0.262000,-0.352000,0.233000,-0.344000,0.205000,-0.329000L0.095000,-0.329000L0.095000,-0.711000L0.528000,-0.711000Z" transform="matrix(1 0 0 1 11.39651493108774 -1.86539009378021)" clip-rule="evenodd" fill="rgb(0,0,0)" stroke="none" stroke-width="1" stroke-linecap="round" stroke-linejoin="round" stroke-miterlimit="1.500000"/></g></g><g id="e4kqluff6pvn15" transform="matrix(0.75745800000000 0 0 0.75745800000000 458.70900000000000 311.28100000000001)" clip-rule="evenodd"><g id="e4kqluff6pvn16" transform="matrix(51.03820000000000 0 0 51.03820000000000 77.73980000000000 277.20600000000002)" clip-rule="evenodd"><path id="e4kqluff6pvn17" d="M0.546000,-0.601000L0.271000,0.016000L0.117000,-0.031000L0.382000,-0.589000L0.070000,-0.589000L0.070000,-0.711000L0.546000,-0.711000L0.546000,-0.601000Z" clip-rule="evenodd" fill="rgb(0,0,0)" stroke="none" stroke-width="1" stroke-linecap="round" stroke-linejoin="round" stroke-miterlimit="1.500000"/></g></g><g id="e4kqluff6pvn18" transform="matrix(0.75745800000000 0 0 0.75745800000000 565.41600000000005 168.59000000000000)" clip-rule="evenodd"><g id="e4kqluff6pvn19" transform="matrix(51.03820000000000 0 0 51.03820000000000 77.73980000000000 277.20600000000002)" clip-rule="evenodd"><path id="e4kqluff6pvn20" d="M0.369000,-0.476000C0.406000,-0.476000,0.440000,-0.467000,0.471000,-0.449000C0.501000,-0.430000,0.525000,-0.403000,0.542000,-0.368000C0.559000,-0.332000,0.568000,-0.290000,0.568000,-0.241000C0.568000,-0.193000,0.558000,-0.150000,0.537000,-0.110000C0.516000,-0.071000,0.487000,-0.040000,0.449000,-0.017000C0.410000,0.006000,0.366000,0.017000,0.316000,0.017000C0.256000,0.017000,0.206000,0.002000,0.166000,-0.028000C0.127000,-0.058000,0.098000,-0.098000,0.079000,-0.149000C0.061000,-0.200000,0.051000,-0.258000,0.051000,-0.322000C0.051000,-0.401000,0.064000,-0.472000,0.088000,-0.533000C0.113000,-0.595000,0.149000,-0.643000,0.195000,-0.677000C0.242000,-0.712000,0.297000,-0.729000,0.359000,-0.729000C0.418000,-0.729000,0.470000,-0.714000,0.514000,-0.683000L0.452000,-0.585000C0.439000,-0.594000,0.425000,-0.601000,0.409000,-0.606000C0.393000,-0.611000,0.378000,-0.613000,0.363000,-0.613000C0.337000,-0.613000,0.313000,-0.606000,0.293000,-0.590000C0.272000,-0.574000,0.256000,-0.552000,0.243000,-0.521000C0.230000,-0.491000,0.222000,-0.455000,0.220000,-0.412000C0.241000,-0.433000,0.264000,-0.449000,0.290000,-0.460000C0.317000,-0.471000,0.343000,-0.476000,0.369000,-0.476000ZM0.318000,-0.098000C0.347000,-0.098000,0.369000,-0.111000,0.384000,-0.136000C0.399000,-0.160000,0.406000,-0.192000,0.406000,-0.232000C0.406000,-0.279000,0.399000,-0.312000,0.386000,-0.333000C0.373000,-0.354000,0.353000,-0.365000,0.327000,-0.365000C0.308000,-0.365000,0.289000,-0.360000,0.271000,-0.351000C0.252000,-0.341000,0.235000,-0.328000,0.220000,-0.310000C0.221000,-0.261000,0.224000,-0.222000,0.231000,-0.191000C0.237000,-0.160000,0.247000,-0.137000,0.261000,-0.122000C0.275000,-0.106000,0.294000,-0.098000,0.318000,-0.098000Z" transform="matrix(1 0 0 1 -11.39109222688656 1.87799606671707)" clip-rule="evenodd" fill="rgb(0,0,0)" stroke="none" stroke-width="1" stroke-linecap="round" stroke-linejoin="round" stroke-miterlimit="1.500000"/></g></g><g id="e4kqluff6pvn21" transform="matrix(0.75745800000000 0 0 0.75745800000000 432.47000000000003 18.30780000000000)" clip-rule="evenodd"><g id="e4kqluff6pvn22" transform="matrix(51.03820000000000 0 0 51.03820000000000 77.73980000000000 277.20600000000002)" clip-rule="evenodd"><path id="e4kqluff6pvn23" d="M0.432000,-0.711000L0.432000,-0.123000L0.565000,-0.123000L0.565000,0L0.103000,0L0.103000,-0.123000L0.274000,-0.123000L0.274000,-0.551000L0.128000,-0.460000L0.059000,-0.571000L0.289000,-0.711000L0.432000,-0.711000Z" clip-rule="evenodd" fill="rgb(0,0,0)" stroke="none" stroke-width="1" stroke-linecap="round" stroke-linejoin="round" stroke-miterlimit="1.500000"/></g></g><g id="e4kqluff6pvn24" transform="matrix(0.75745800000000 0 0 0.75745800000000 329.44000000000000 242.70400000000001)" clip-rule="evenodd"><g id="e4kqluff6pvn25" transform="matrix(51.03820000000000 0 0 51.03820000000000 77.73980000000000 277.20600000000002)" clip-rule="evenodd"><path id="e4kqluff6pvn26" d="M0.283000,-0.729000C0.335000,-0.729000,0.379000,-0.719000,0.416000,-0.701000C0.453000,-0.683000,0.481000,-0.658000,0.500000,-0.627000C0.519000,-0.596000,0.528000,-0.562000,0.528000,-0.525000C0.528000,-0.486000,0.519000,-0.449000,0.502000,-0.412000C0.484000,-0.376000,0.455000,-0.335000,0.414000,-0.291000C0.373000,-0.246000,0.316000,-0.190000,0.241000,-0.124000L0.545000,-0.124000L0.527000,0L0.055000,0L0.055000,-0.115000C0.138000,-0.196000,0.201000,-0.259000,0.244000,-0.304000C0.286000,-0.350000,0.316000,-0.389000,0.335000,-0.421000C0.354000,-0.452000,0.363000,-0.482000,0.363000,-0.511000C0.363000,-0.540000,0.355000,-0.563000,0.338000,-0.579000C0.321000,-0.596000,0.298000,-0.604000,0.268000,-0.604000C0.241000,-0.604000,0.218000,-0.598000,0.198000,-0.587000C0.178000,-0.576000,0.158000,-0.558000,0.140000,-0.532000L0.041000,-0.607000C0.069000,-0.646000,0.102000,-0.676000,0.142000,-0.697000C0.181000,-0.718000,0.228000,-0.729000,0.283000,-0.729000Z" clip-rule="evenodd" fill="rgb(0,0,0)" stroke="none" stroke-width="1" stroke-linecap="round" stroke-linejoin="round" stroke-miterlimit="1.500000"/></g></g><g id="e4kqluff6pvn27" transform="matrix(0.75745800000000 0 0 0.75745800000000 203.50899999999999 36.97050000000000)" clip-rule="evenodd"><g id="e4kqluff6pvn28" transform="matrix(51.03820000000000 0 0 51.03820000000000 77.73980000000000 277.20600000000002)" clip-rule="evenodd"><path id="e4kqluff6pvn29" d="M0.279000,-0.729000C0.329000,-0.729000,0.372000,-0.721000,0.408000,-0.704000C0.445000,-0.688000,0.473000,-0.666000,0.492000,-0.638000C0.511000,-0.611000,0.521000,-0.580000,0.521000,-0.547000C0.521000,-0.503000,0.508000,-0.467000,0.483000,-0.438000C0.457000,-0.410000,0.422000,-0.389000,0.376000,-0.376000C0.488000,-0.361000,0.544000,-0.302000,0.544000,-0.200000C0.544000,-0.160000,0.532000,-0.123000,0.510000,-0.090000C0.488000,-0.057000,0.456000,-0.031000,0.414000,-0.012000C0.373000,0.008000,0.324000,0.017000,0.269000,0.017000C0.216000,0.017000,0.169000,0.008000,0.127000,-0.010000C0.085000,-0.028000,0.049000,-0.055000,0.018000,-0.089000L0.110000,-0.174000C0.149000,-0.129000,0.198000,-0.107000,0.258000,-0.107000C0.294000,-0.107000,0.323000,-0.116000,0.345000,-0.134000C0.366000,-0.152000,0.377000,-0.178000,0.377000,-0.211000C0.377000,-0.248000,0.367000,-0.275000,0.347000,-0.292000C0.326000,-0.309000,0.296000,-0.317000,0.257000,-0.317000L0.192000,-0.317000L0.211000,-0.429000L0.257000,-0.429000C0.289000,-0.429000,0.315000,-0.437000,0.335000,-0.453000C0.354000,-0.469000,0.364000,-0.492000,0.364000,-0.522000C0.364000,-0.548000,0.355000,-0.569000,0.336000,-0.585000C0.317000,-0.600000,0.292000,-0.608000,0.261000,-0.608000C0.234000,-0.608000,0.209000,-0.603000,0.186000,-0.593000C0.163000,-0.582000,0.141000,-0.567000,0.119000,-0.547000L0.036000,-0.633000C0.102000,-0.697000,0.183000,-0.729000,0.279000,-0.729000Z" clip-rule="evenodd" fill="rgb(0,0,0)" stroke="none" stroke-width="1" stroke-linecap="round" stroke-linejoin="round" stroke-miterlimit="1.500000"/></g></g><script><![CDATA[!function(t,n){"object"==typeof exports&&"undefined"!=typeof module?module.exports=n():"function"==typeof define&&define.amd?define(n):(t="undefined"!=typeof globalThis?globalThis:t||self).__SVGATOR_PLAYER__=n()}(this,(function(){"use strict";function t(n){return(t="function"==typeof Symbol&&"symbol"==typeof Symbol.iterator?function(t){return typeof t}:function(t){return t&&"function"==typeof Symbol&&t.constructor===Symbol&&t!==Symbol.prototype?"symbol":typeof t})(n)}function n(t,n){if(!(t instanceof n))throw new TypeError("Cannot call a class as a function")}function r(t,n){for(var r=0;r<n.length;r++){var e=n[r];e.enumerable=e.enumerable||!1,e.configurable=!0,"value"in e&&(e.writable=!0),Object.defineProperty(t,e.key,e)}}function e(t,n,e){return n&&r(t.prototype,n),e&&r(t,e),t}function i(t){return(i=Object.setPrototypeOf?Object.getPrototypeOf:function(t){return t.__proto__||Object.getPrototypeOf(t)})(t)}function u(t,n){return(u=Object.setPrototypeOf||function(t,n){return t.__proto__=n,t})(t,n)}function o(t,n){return!n||"object"!=typeof n&&"function"!=typeof n?function(t){if(void 0===t)throw new ReferenceError("this hasn't been initialised - super() hasn't been called");return t}(t):n}function a(t){var n=function(){if("undefined"==typeof Reflect||!Reflect.construct)return!1;if(Reflect.construct.sham)return!1;if("function"==typeof Proxy)return!0;try{return Boolean.prototype.valueOf.call(Reflect.construct(Boolean,[],(function(){}))),!0}catch(t){return!1}}();return function(){var r,e=i(t);if(n){var u=i(this).constructor;r=Reflect.construct(e,arguments,u)}else r=e.apply(this,arguments);return o(this,r)}}function l(t,n,r){return(l="undefined"!=typeof Reflect&&Reflect.get?Reflect.get:function(t,n,r){var e=function(t,n){for(;!Object.prototype.hasOwnProperty.call(t,n)&&null!==(t=i(t)););return t}(t,n);if(e){var u=Object.getOwnPropertyDescriptor(e,n);return u.get?u.get.call(r):u.value}})(t,n,r||t)}var f=Math.abs;function s(t){return t}function c(t,n,r){var e=1-r;return 3*r*e*(t*e+n*r)+r*r*r}function h(){var t=arguments.length>0&&void 0!==arguments[0]?arguments[0]:0,n=arguments.length>1&&void 0!==arguments[1]?arguments[1]:0,r=arguments.length>2&&void 0!==arguments[2]?arguments[2]:1,e=arguments.length>3&&void 0!==arguments[3]?arguments[3]:1;return t<0||t>1||r<0||r>1?null:f(t-n)<=1e-5&&f(r-e)<=1e-5?s:function(i){if(i<=0)return t>0?i*n/t:0===n&&r>0?i*e/r:0;if(i>=1)return r<1?1+(i-1)*(e-1)/(r-1):1===r&&t<1?1+(i-1)*(n-1)/(t-1):1;for(var u,o=0,a=1;o<a;){var l=c(t,r,u=(o+a)/2);if(f(i-l)<1e-5)break;l<i?o=u:a=u}return c(n,e,u)}}function v(){return 1}function y(t){return 1===t?1:0}function d(){var t=arguments.length>0&&void 0!==arguments[0]?arguments[0]:1,n=arguments.length>1&&void 0!==arguments[1]?arguments[1]:0;if(1===t){if(0===n)return y;if(1===n)return v}var r=1/t;return function(t){return t>=1?1:(t+=n*r)-t%r}}function g(t){var n=arguments.length>1&&void 0!==arguments[1]?arguments[1]:2;if(Number.isInteger(t))return t;var r=Math.pow(10,n);return Math.round(t*r)/r}var p=Math.PI/180;function m(t,n,r){return t>=.5?r:n}function b(t,n,r){return 0===t||n===r?n:t*(r-n)+n}function w(t,n,r){var e=b(t,n,r);return e<=0?0:e}function x(t,n,r){return 0===t?n:1===t?r:{x:b(t,n.x,r.x),y:b(t,n.y,r.y)}}function A(t,n,r){return 0===t?n:1===t?r:{x:w(t,n.x,r.x),y:w(t,n.y,r.y)}}function k(t,n,r){var e=function(t,n,r){return Math.round(b(t,n,r))}(t,n,r);return e<=0?0:e>=255?255:e}function _(t,n,r){return 0===t?n:1===t?r:{r:k(t,n.r,r.r),g:k(t,n.g,r.g),b:k(t,n.b,r.b),a:b(t,null==n.a?1:n.a,null==r.a?1:r.a)}}function S(t,n,r){if(0===t)return n;if(1===t)return r;var e=n.length;if(e!==r.length)return m(t,n,r);for(var i=[],u=0;u<e;u++)i.push(_(t,n[u],r[u]));return i}function O(t,n,r){var e=n.length;if(e!==r.length)return m(t,n,r);for(var i=new Array(e),u=0;u<e;u++)i[u]=b(t,n[u],r[u]);return i}function M(t,n){for(var r=[],e=0;e<t;e++)r.push(n);return r}function B(t,n){if(--n<=0)return t;var r=(t=Object.assign([],t)).length;do{for(var e=0;e<r;e++)t.push(t[e])}while(--n>0);return t}var I,j=function(){function t(r){n(this,t),this.list=r,this.length=r.length}return e(t,[{key:"setAttribute",value:function(t,n){for(var r=this.list,e=0;e<this.length;e++)r[e].setAttribute(t,n)}},{key:"removeAttribute",value:function(t){for(var n=this.list,r=0;r<this.length;r++)n[r].removeAttribute(t)}},{key:"style",value:function(t,n){for(var r=this.list,e=0;e<this.length;e++)r[e].style[t]=n}}]),t}(),E=/-./g,F=function(t,n){return n.toUpperCase()};function P(t){return"function"==typeof t?t:m}function R(t){return t?"function"==typeof t?t:Array.isArray(t)?function(t){var n=arguments.length>1&&void 0!==arguments[1]?arguments[1]:s;if(!Array.isArray(t))return n;switch(t.length){case 1:return d(t[0])||n;case 2:return d(t[0],t[1])||n;case 4:return h(t[0],t[1],t[2],t[3])||n}return n}(t,null):function(t,n){var r=arguments.length>2&&void 0!==arguments[2]?arguments[2]:s;switch(t){case"linear":return s;case"steps":return d(n.steps||1,n.jump||0)||r;case"bezier":case"cubic-bezier":return h(n.x1||0,n.y1||0,n.x2||0,n.y2||0)||r}return r}(t.type,t.value,null):null}function q(t,n,r){var e=arguments.length>3&&void 0!==arguments[3]&&arguments[3],i=n.length-1;if(t<=n[0].t)return e?[0,0,n[0].v]:n[0].v;if(t>=n[i].t)return e?[i,1,n[i].v]:n[i].v;var u,o=n[0],a=null;for(u=1;u<=i;u++){if(!(t>n[u].t)){a=n[u];break}o=n[u]}return null==a?e?[i,1,n[i].v]:n[i].v:o.t===a.t?e?[u,1,a.v]:a.v:(t=(t-o.t)/(a.t-o.t),o.e&&(t=o.e(t)),e?[u,t,r(t,o.v,a.v)]:r(t,o.v,a.v))}function T(t,n){var r=arguments.length>2&&void 0!==arguments[2]?arguments[2]:null;return t&&t.length?"function"!=typeof n?null:("function"!=typeof r&&(r=null),function(e){var i=q(e,t,n);return null!=i&&r&&(i=r(i)),i}):null}function N(t,n){return t.t-n.t}function C(n,r,e,i,u){var o,a="@"===e[0],l="#"===e[0],f=I[e],s=m;switch(a?(o=e.substr(1),e=o.replace(E,F)):l&&(e=e.substr(1)),t(f)){case"function":if(s=f(i,u,q,R,e,a,r,n),l)return s;break;case"string":s=T(i,P(f));break;case"object":if((s=T(i,P(f.i),f.f))&&"function"==typeof f.u)return f.u(r,s,e,a,n)}return s?function(t,n,r){var e=arguments.length>3&&void 0!==arguments[3]&&arguments[3];if(e)return t instanceof j?function(e){return t.style(n,r(e))}:function(e){return t.style[n]=r(e)};if(Array.isArray(n)){var i=n.length;return function(e){var u=r(e);if(null==u)for(var o=0;o<i;o++)t[o].removeAttribute(n);else for(var a=0;a<i;a++)t[a].setAttribute(n,u)}}return function(e){var i=r(e);null==i?t.removeAttribute(n):t.setAttribute(n,i)}}(r,e,s,a):null}function z(n,r,e,i){if(!i||"object"!==t(i))return null;var u=null,o=null;return Array.isArray(i)?o=function(t){if(!t||!t.length)return null;for(var n=0;n<t.length;n++)t[n].e&&(t[n].e=R(t[n].e));return t.sort(N)}(i):(o=i.keys,u=i.data||null),o?C(n,r,e,o,u):null}function L(t,n,r){if(!r)return null;var e=[];for(var i in r)if(r.hasOwnProperty(i)){var u=z(t,n,i,r[i]);u&&e.push(u)}return e.length?e:null}function D(t,n){if(!n.duration||n.duration<0)return null;var r=function(t,n){if(!n)return null;var r=[];if(Array.isArray(n))for(var e=n.length,i=0;i<e;i++){var u=n[i];if(2===u.length){var o=null;if("string"==typeof u[0])o=t.getElementById(u[0]);else if(Array.isArray(u[0])){o=[];for(var a=0;a<u[0].length;a++)if("string"==typeof u[0][a]){var l=t.getElementById(u[0][a]);l&&o.push(l)}o=o.length?1===o.length?o[0]:new j(o):null}if(o){var f=L(t,o,u[1]);f&&(r=r.concat(f))}}}else for(var s in n)if(n.hasOwnProperty(s)){var c=t.getElementById(s);if(c){var h=L(t,c,n[s]);h&&(r=r.concat(h))}}return r.length?r:null}(t,n.elements);return r?function(t,n){var r=arguments.length>2&&void 0!==arguments[2]?arguments[2]:1/0,e=arguments.length>3&&void 0!==arguments[3]?arguments[3]:1,i=arguments.length>4&&void 0!==arguments[4]&&arguments[4],u=arguments.length>5&&void 0!==arguments[5]?arguments[5]:1,o=t.length,a=e>0?n:0;i&&r%2==0&&(a=n-a);var l=null;return function(f,s){var c=f%n,h=1+(f-c)/n;s*=e,i&&h%2==0&&(s=-s);var v=!1;if(h>r)c=a,v=!0,-1===u&&(c=e>0?0:n);else if(s<0&&(c=n-c),c===l)return!1;l=c;for(var y=0;y<o;y++)t[y](c);return v}}(r,n.duration,n.iterations||1/0,n.direction||1,!!n.alternate,n.fill||1):null}var V=function(){function t(r,e){var i=arguments.length>2&&void 0!==arguments[2]?arguments[2]:{};n(this,t),this._id=0,this._running=!1,this._rollingBack=!1,this._animations=r,this.duration=e.duration,this.alternate=e.alternate,this.fill=e.fill,this.iterations=e.iterations,this.direction=i.direction||1,this.speed=i.speed||1,this.fps=i.fps||100,this.offset=i.offset||0,this.rollbackStartOffset=0}return e(t,[{key:"_rollback",value:function(){var t=this,n=1/0,r=null;this.rollbackStartOffset=this.offset,this._rollingBack||(this._rollingBack=!0,this._running=!0);this._id=window.requestAnimationFrame((function e(i){if(t._rollingBack){null==r&&(r=i);var u=i-r,o=t.rollbackStartOffset-u,a=Math.round(o*t.speed);if(a>t.duration&&n!=1/0){var l=!!t.alternate&&a/t.duration%2>1,f=a%t.duration;a=(f+=l?t.duration:0)||t.duration}var s=t.fps?1e3/t.fps:0,c=Math.max(0,a);if(c<n-s){t.offset=c,n=c;for(var h=t._animations,v=h.length,y=0;y<v;y++)h[y](c,t.direction)}var d=!1;if(t.iterations>0&&-1===t.fill){var g=t.iterations*t.duration,p=g==a;a=p?0:a,t.offset=p?0:t.offset,d=a>g}a>0&&t.offset>=a&&!d?t._id=window.requestAnimationFrame(e):t.stop()}}))}},{key:"_start",value:function(){var t=this,n=arguments.length>0&&void 0!==arguments[0]?arguments[0]:0,r=-1/0,e=null,i={},u=function u(o){t._running=!0,null==e&&(e=o);var a=Math.round((o-e+n)*t.speed),l=t.fps?1e3/t.fps:0;if(a>r+l&&!t._rollingBack){t.offset=a,r=a;for(var f=t._animations,s=f.length,c=0,h=0;h<s;h++)i[h]?c++:(i[h]=f[h](a,t.direction),i[h]&&c++);if(c===s)return void t._stop()}t._id=window.requestAnimationFrame(u)};this._id=window.requestAnimationFrame(u)}},{key:"_stop",value:function(){this._id&&window.cancelAnimationFrame(this._id),this._running=!1,this._rollingBack=!1}},{key:"play",value:function(){!this._rollingBack&&this._running||(this._rollingBack=!1,this.rollbackStartOffset>this.duration&&(this.offset=this.rollbackStartOffset-(this.rollbackStartOffset-this.offset)%this.duration,this.rollbackStartOffset=0),this._start(this.offset))}},{key:"stop",value:function(){this._stop(),this.offset=0,this.rollbackStartOffset=0;var t=this.direction,n=this._animations;window.requestAnimationFrame((function(){for(var r=0;r<n.length;r++)n[r](0,t)}))}},{key:"reachedToEnd",value:function(){return this.iterations>0&&this.offset>=this.iterations*this.duration}},{key:"restart",value:function(){this._stop(),this.offset=0,this._start()}},{key:"pause",value:function(){this._stop()}},{key:"reverse",value:function(){this.direction=-this.direction}}],[{key:"build",value:function(n,r){return(n=function(t,n){if(I=n,!t||!t.root||!Array.isArray(t.animations))return null;for(var r=document.getElementsByTagName("svg"),e=!1,i=0;i<r.length;i++)if(r[i].id===t.root&&!r[i].svgatorAnimation){(e=r[i]).svgatorAnimation=!0;break}if(!e)return null;var u=t.animations.map((function(t){return D(e,t)})).filter((function(t){return!!t}));return u.length?{element:e,animations:u,animationSettings:t.animationSettings,options:t.options||void 0}:null}(n,r))?{el:n.element,options:n.options||{},player:new t(n.animations,n.animationSettings,n.options)}:null}}]),t}();!function(){for(var t=0,n=["ms","moz","webkit","o"],r=0;r<n.length&&!window.requestAnimationFrame;++r)window.requestAnimationFrame=window[n[r]+"RequestAnimationFrame"],window.cancelAnimationFrame=window[n[r]+"CancelAnimationFrame"]||window[n[r]+"CancelRequestAnimationFrame"];window.requestAnimationFrame||(window.requestAnimationFrame=function(n){var r=Date.now(),e=Math.max(0,16-(r-t)),i=window.setTimeout((function(){n(r+e)}),e);return t=r+e,i},window.cancelAnimationFrame=window.clearTimeout)}();var G=/\.0+$/g;function Q(t){return Number.isInteger(t)?t+"":t.toFixed(6).replace(G,"")}function U(t){var n=arguments.length>1&&void 0!==arguments[1]?arguments[1]:" ";return t&&t.length?t.map(Q).join(n):""}function $(t){return Q(t.x)+","+Q(t.y)}function H(t){return t?null==t.a||t.a>=1?"rgb("+t.r+","+t.g+","+t.b+")":"rgba("+t.r+","+t.g+","+t.b+","+t.a+")":"transparent"}var Y={f:null,i:A,u:function(t,n){return function(r){var e=n(r);t.setAttribute("rx",Q(e.x)),t.setAttribute("ry",Q(e.y))}}},Z={f:null,i:function(t,n,r){return 0===t?n:1===t?r:{width:w(t,n.width,r.width),height:w(t,n.height,r.height)}},u:function(t,n){return function(r){var e=n(r);t.setAttribute("width",Q(e.width)),t.setAttribute("height",Q(e.height))}}},J=Math.sin,K=Math.cos,W=Math.acos,X=Math.asin,tt=Math.tan,nt=Math.atan2,rt=Math.PI/180,et=180/Math.PI,it=Math.sqrt,ut=function(){function t(){var r=arguments.length>0&&void 0!==arguments[0]?arguments[0]:1,e=arguments.length>1&&void 0!==arguments[1]?arguments[1]:0,i=arguments.length>2&&void 0!==arguments[2]?arguments[2]:0,u=arguments.length>3&&void 0!==arguments[3]?arguments[3]:1,o=arguments.length>4&&void 0!==arguments[4]?arguments[4]:0,a=arguments.length>5&&void 0!==arguments[5]?arguments[5]:0;n(this,t),this.m=[r,e,i,u,o,a],this.i=null,this.w=null,this.s=null}return e(t,[{key:"determinant",get:function(){var t=this.m;return t[0]*t[3]-t[1]*t[2]}},{key:"isIdentity",get:function(){if(null===this.i){var t=this.m;this.i=1===t[0]&&0===t[1]&&0===t[2]&&1===t[3]&&0===t[4]&&0===t[5]}return this.i}},{key:"point",value:function(t,n){var r=this.m;return{x:r[0]*t+r[2]*n+r[4],y:r[1]*t+r[3]*n+r[5]}}},{key:"translateSelf",value:function(){var t=arguments.length>0&&void 0!==arguments[0]?arguments[0]:0,n=arguments.length>1&&void 0!==arguments[1]?arguments[1]:0;if(!t&&!n)return this;var r=this.m;return r[4]+=r[0]*t+r[2]*n,r[5]+=r[1]*t+r[3]*n,this.w=this.s=this.i=null,this}},{key:"rotateSelf",value:function(){var t=arguments.length>0&&void 0!==arguments[0]?arguments[0]:0;if(t%=360){var n=J(t*=rt),r=K(t),e=this.m,i=e[0],u=e[1];e[0]=i*r+e[2]*n,e[1]=u*r+e[3]*n,e[2]=e[2]*r-i*n,e[3]=e[3]*r-u*n,this.w=this.s=this.i=null}return this}},{key:"scaleSelf",value:function(){var t=arguments.length>0&&void 0!==arguments[0]?arguments[0]:1,n=arguments.length>1&&void 0!==arguments[1]?arguments[1]:1;if(1!==t||1!==n){var r=this.m;r[0]*=t,r[1]*=t,r[2]*=n,r[3]*=n,this.w=this.s=this.i=null}return this}},{key:"skewSelf",value:function(t,n){if(n%=360,(t%=360)||n){var r=this.m,e=r[0],i=r[1],u=r[2],o=r[3];t&&(t=tt(t*rt),r[2]+=e*t,r[3]+=i*t),n&&(n=tt(n*rt),r[0]+=u*n,r[1]+=o*n),this.w=this.s=this.i=null}return this}},{key:"resetSelf",value:function(){var t=arguments.length>0&&void 0!==arguments[0]?arguments[0]:1,n=arguments.length>1&&void 0!==arguments[1]?arguments[1]:0,r=arguments.length>2&&void 0!==arguments[2]?arguments[2]:0,e=arguments.length>3&&void 0!==arguments[3]?arguments[3]:1,i=arguments.length>4&&void 0!==arguments[4]?arguments[4]:0,u=arguments.length>5&&void 0!==arguments[5]?arguments[5]:0,o=this.m;return o[0]=t,o[1]=n,o[2]=r,o[3]=e,o[4]=i,o[5]=u,this.w=this.s=this.i=null,this}},{key:"recomposeSelf",value:function(){var t=arguments.length>0&&void 0!==arguments[0]?arguments[0]:null,n=arguments.length>1&&void 0!==arguments[1]?arguments[1]:null,r=arguments.length>2&&void 0!==arguments[2]?arguments[2]:null,e=arguments.length>3&&void 0!==arguments[3]?arguments[3]:null,i=arguments.length>4&&void 0!==arguments[4]?arguments[4]:null;return this.isIdentity||this.resetSelf(),t&&(t.x||t.y)&&this.translateSelf(t.x,t.y),n&&this.rotateSelf(n),r&&(r.x&&this.skewSelf(r.x,0),r.y&&this.skewSelf(0,r.y)),!e||1===e.x&&1===e.y||this.scaleSelf(e.x,e.y),i&&(i.x||i.y)&&this.translateSelf(i.x,i.y),this}},{key:"decompose",value:function(){var t=arguments.length>0&&void 0!==arguments[0]?arguments[0]:0,n=arguments.length>1&&void 0!==arguments[1]?arguments[1]:0,r=this.m,e=r[0]*r[0]+r[1]*r[1],i=[[r[0],r[1]],[r[2],r[3]]],u=it(e);if(0===u)return{origin:{x:r[4],y:r[5]},translate:{x:t,y:n},scale:{x:0,y:0},skew:{x:0,y:0},rotate:0};i[0][0]/=u,i[0][1]/=u;var o=r[0]*r[3]-r[1]*r[2]<0;o&&(u=-u);var a=i[0][0]*i[1][0]+i[0][1]*i[1][1];i[1][0]-=i[0][0]*a,i[1][1]-=i[0][1]*a;var l=it(i[1][0]*i[1][0]+i[1][1]*i[1][1]);if(0===l)return{origin:{x:r[4],y:r[5]},translate:{x:t,y:n},scale:{x:u,y:0},skew:{x:0,y:0},rotate:0};i[1][0]/=l,i[1][1]/=l,a/=l;var f=0;return i[1][1]<0?(f=W(i[1][1])*et,i[0][1]<0&&(f=360-f)):f=X(i[0][1])*et,o&&(f=-f),a=nt(a,it(i[0][0]*i[0][0]+i[0][1]*i[0][1]))*et,o&&(a=-a),{origin:{x:r[4],y:r[5]},translate:{x:t,y:n},scale:{x:u,y:l},skew:{x:a,y:0},rotate:f}}},{key:"toString",value:function(){return null===this.s&&(this.s="matrix("+this.m.map(at).join(" ")+")"),this.s}}]),t}(),ot=/\.0+$/;function at(t){return Number.isInteger(t)?t:t.toFixed(14).replace(ot,"")}function lt(t,n,r){return t+(n-t)*r}function ft(t,n,r){var e=arguments.length>3&&void 0!==arguments[3]&&arguments[3],i={x:lt(t.x,n.x,r),y:lt(t.y,n.y,r)};return e&&(i.a=st(t,n)),i}function st(t,n){return Math.atan2(n.y-t.y,n.x-t.x)}Object.freeze({M:2,L:2,Z:0,H:1,V:1,C:6,Q:4,T:2,S:4,A:7});var ct={},ht=null;function vt(n){var r=function(){if(ht)return ht;if("object"!==("undefined"==typeof document?"undefined":t(document)))return{};var n=document.createElementNS("http://www.w3.org/2000/svg","svg");return n.style.position="absolute",n.style.opacity="0.01",n.style.zIndex="-9999",n.style.left="-9999px",n.style.width="1px",n.style.height="1px",ht={svg:n}}().svg;if(!r)return function(t){return null};var e=document.createElementNS(r.namespaceURI,"path");e.setAttributeNS(null,"d",n),e.setAttributeNS(null,"fill","none"),e.setAttributeNS(null,"stroke","none"),r.appendChild(e);var i=e.getTotalLength();return function(t){var n=e.getPointAtLength(i*t);return{x:n.x,y:n.y}}}function yt(t){return ct[t]?ct[t]:ct[t]=vt(t)}function dt(t,n,r,e){if(!t||!e)return!1;var i=["M",t.x,t.y];if(n&&r&&(i.push("C"),i.push(n.x),i.push(n.y),i.push(r.x),i.push(r.y)),n?!r:r){var u=n||r;i.push("Q"),i.push(u.x),i.push(u.y)}return n||r||i.push("L"),i.push(e.x),i.push(e.y),i.join(" ")}function gt(t,n,r,e){var i=arguments.length>4&&void 0!==arguments[4]?arguments[4]:1,u=dt(t,n,r,e),o=yt(u);try{return o(i)}catch(t){return null}}function pt(t,n,r,e){var i=1-e;return i*i*t+2*i*e*n+e*e*r}function mt(t,n,r,e){return 2*(1-e)*(n-t)+2*e*(r-n)}function bt(t,n,r,e){var i=arguments.length>4&&void 0!==arguments[4]&&arguments[4],u=gt(t,n,null,r,e);return u||(u={x:pt(t.x,n.x,r.x,e),y:pt(t.y,n.y,r.y,e)}),i&&(u.a=wt(t,n,r,e)),u}function wt(t,n,r,e){return Math.atan2(mt(t.y,n.y,r.y,e),mt(t.x,n.x,r.x,e))}function xt(t,n,r,e,i){var u=i*i;return i*u*(e-t+3*(n-r))+3*u*(t+r-2*n)+3*i*(n-t)+t}function At(t,n,r,e,i){var u=1-i;return 3*(u*u*(n-t)+2*u*i*(r-n)+i*i*(e-r))}function kt(t,n,r,e,i){var u=arguments.length>5&&void 0!==arguments[5]&&arguments[5],o=gt(t,n,r,e,i);return o||(o={x:xt(t.x,n.x,r.x,e.x,i),y:xt(t.y,n.y,r.y,e.y,i)}),u&&(o.a=_t(t,n,r,e,i)),o}function _t(t,n,r,e,i){return Math.atan2(At(t.y,n.y,r.y,e.y,i),At(t.x,n.x,r.x,e.x,i))}function St(t,n,r){var e=arguments.length>3&&void 0!==arguments[3]&&arguments[3];if(Mt(n)){if(Bt(r))return bt(n,r.start,r,t,e)}else if(Mt(r)){if(n.end)return bt(n,n.end,r,t,e)}else{if(n.end)return r.start?kt(n,n.end,r.start,r,t,e):bt(n,n.end,r,t,e);if(r.start)return bt(n,r.start,r,t,e)}return ft(n,r,t,e)}function Ot(t,n,r){var e=St(t,n,r,!0);return e.a=function(t){var n=arguments.length>1&&void 0!==arguments[1]&&arguments[1];return n?t+Math.PI:t}(e.a)/p,e}function Mt(t){return!t.type||"corner"===t.type}function Bt(t){return null!=t.start&&!Mt(t)}var It=new ut;var jt={f:function(t){return t?t.join(" "):""},i:function(n,r,e){if(0===n)return r;if(1===n)return e;var i=r.length;if(i!==e.length)return m(n,r,e);for(var u,o=new Array(i),a=0;a<i;a++){if((u=t(r[a]))!==t(e[a]))return m(n,r,e);if("number"===u)o[a]=b(n,r[a],e[a]);else{if(r[a]!==e[a])return m(n,r,e);o[a]=r[a]}}return o}},Et={f:null,i:O,u:function(t,n){return function(r){var e=n(r);t.setAttribute("x1",Q(e[0])),t.setAttribute("y1",Q(e[1])),t.setAttribute("x2",Q(e[2])),t.setAttribute("y2",Q(e[3]))}}},Ft={f:Q,i:b},Pt={f:Q,i:function(t,n,r){var e=b(t,n,r);return e<=0?0:e>=1?1:e}},Rt={f:function(t){var n=arguments.length>1&&void 0!==arguments[1]?arguments[1]:" ";return t&&t.length>0&&(t=t.map((function(t){return Math.floor(1e4*t)/1e4}))),U(t,n)},i:function(t,n,r){var e,i,u,o=n.length,a=r.length;if(o!==a)if(0===o)n=M(o=a,0);else if(0===a)a=o,r=M(o,0);else{var l=(u=(e=o)*(i=a)/function(t,n){for(var r;n;)r=n,n=t%n,t=r;return t||1}(e,i))<0?-u:u;n=B(n,Math.floor(l/o)),r=B(r,Math.floor(l/a)),o=a=l}for(var f=[],s=0;s<o;s++)f.push(g(w(t,n[s],r[s]),6));return f}};function qt(t,n,r,e,i,u,o,a){return n=function(t,n,r){for(var e,i,u,o=t.length-1,a={},l=0;l<=o;l++)(e=t[l]).e&&(e.e=n(e.e)),e.v&&"g"===(i=e.v).t&&i.r&&(u=r.getElementById(i.r))&&(a[i.r]=u.querySelectorAll("stop"));return a}(t,e,a),function(e){var i,u=r(e,t,Tt);return u?"c"===u.t?H(u.v):"g"===u.t?(n[u.r]&&function(t,n){for(var r=0,e=t.length;r<e;r++)t[r].setAttribute("stop-color",H(n[r]))}(n[u.r],u.v),(i=u.r)?"url(#"+i+")":"none"):"none":"none"}}function Tt(t,n,r){if(0===t)return n;if(1===t)return r;if(n&&r){var e=n.t;if(e===r.t)switch(n.t){case"c":return{t:e,v:_(t,n.v,r.v)};case"g":if(n.r===r.r)return{t:e,v:S(t,n.v,r.v),r:n.r}}}return m(t,n,r)}var Nt={blur:A,brightness:w,contrast:w,"drop-shadow":function(t,n,r){return 0===t?n:1===t?r:{blur:A(t,n.blur,r.blur),offset:x(t,n.offset,r.offset),color:_(t,n.color,r.color)}},grayscale:w,"hue-rotate":b,invert:w,opacity:w,saturate:w,sepia:w};function Ct(t,n,r){if(0===t)return n;if(1===t)return r;var e=n.length;if(e!==r.length)return m(t,n,r);for(var i,u=[],o=0;o<e;o++){if(n[o].type!==r[o].type)return n;if(!(i=Nt[n[o].type]))return m(t,n,r);u.push({type:n.type,value:i(t,n[o].value,r[o].value)})}return u}var zt={blur:function(t){return t?function(n){t.setAttribute("stdDeviation",$(n))}:null},brightness:function(t,n,r){return(t=Dt(r,n))?function(n){n=Q(n),t.map((function(t){return t.setAttribute("slope",n)}))}:null},contrast:function(t,n,r){return(t=Dt(r,n))?function(n){var r=Q((1-n)/2);n=Q(n),t.map((function(t){t.setAttribute("slope",n),t.setAttribute("intercept",r)}))}:null},"drop-shadow":function(t,n,r){var e=r.getElementById(n+"-blur");if(!e)return null;var i=r.getElementById(n+"-offset");if(!i)return null;var u=r.getElementById(n+"-flood");return u?function(t){e.setAttribute("stdDeviation",$(t.blur)),i.setAttribute("dx",Q(t.offset.x)),i.setAttribute("dy",Q(t.offset.y)),u.setAttribute("flood-color",H(t.color))}:null},grayscale:function(t){return t?function(n){t.setAttribute("values",U(function(t){return[.2126+.7874*(t=1-t),.7152-.7152*t,.0722-.0722*t,0,0,.2126-.2126*t,.7152+.2848*t,.0722-.0722*t,0,0,.2126-.2126*t,.7152-.7152*t,.0722+.9278*t,0,0,0,0,0,1,0]}(n)))}:null},"hue-rotate":function(t){return t?function(n){return t.setAttribute("values",Q(n))}:null},invert:function(t,n,r){return(t=Dt(r,n))?function(n){n=Q(n)+" "+Q(1-n),t.map((function(t){return t.setAttribute("tableValues",n)}))}:null},opacity:function(t,n,r){return(t=r.getElementById(n+"-A"))?function(n){return t.setAttribute("tableValues","0 "+Q(n))}:null},saturate:function(t){return t?function(n){return t.setAttribute("values",Q(n))}:null},sepia:function(t){return t?function(n){return t.setAttribute("values",U(function(t){return[.393+.607*(t=1-t),.769-.769*t,.189-.189*t,0,0,.349-.349*t,.686+.314*t,.168-.168*t,0,0,.272-.272*t,.534-.534*t,.131+.869*t,0,0,0,0,0,1,0]}(n)))}:null}};var Lt=["R","G","B"];function Dt(t,n){var r=Lt.map((function(r){return t.getElementById(n+"-"+r)||null}));return-1!==r.indexOf(null)?null:r}var Vt={fill:qt,"fill-opacity":Pt,stroke:qt,"stroke-opacity":Pt,"stroke-width":Ft,"stroke-dashoffset":{f:Q,i:b},"stroke-dasharray":Rt,opacity:Pt,transform:function(n,r,e,i){if(!(n=function(n,r){if(!n||"object"!==t(n))return null;var e=!1;for(var i in n)n.hasOwnProperty(i)&&(n[i]&&n[i].length?(n[i].forEach((function(t){t.e&&(t.e=r(t.e))})),e=!0):delete n[i]);return e?n:null}(n,i)))return null;var u=function(t,i,u){var o=arguments.length>3&&void 0!==arguments[3]?arguments[3]:null;return n[t]?e(i,n[t],u):r&&r[t]?r[t]:o};return r&&r.a&&n.o?function(t){var r=e(t,n.o,Ot);return It.recomposeSelf(r,u("r",t,b,0)+r.a,u("k",t,x),u("s",t,x),u("t",t,x)).toString()}:function(t){return It.recomposeSelf(u("o",t,St,null),u("r",t,b,0),u("k",t,x),u("s",t,x),u("t",t,x)).toString()}},"#filter":function(t,n,r,e,i,u,o,a){if(!n.items||!t||!t.length)return null;var l=function(t,n){var r=(t=t.map((function(t){return t&&zt[t[0]]?(n.getElementById(t[1]),zt[t[0]](n.getElementById(t[1]),t[1],n)):null}))).length;return function(n){for(var e=0;e<r;e++)t[e]&&t[e](n[e].value)}}(n.items,a);return l?(t=function(t,n){return t.map((function(t){return t.e=n(t.e),t}))}(t,e),function(n){l(r(n,t,Ct))}):null},"#line":Et,points:{f:U,i:O},d:jt,r:Ft,"#size":Z,"#radius":Y,_:function(t,n){if(Array.isArray(t))for(var r=0;r<t.length;r++)this[t[r]]=n;else this[t]=n}};return function(t){!function(t,n){if("function"!=typeof n&&null!==n)throw new TypeError("Super expression must either be null or a function");t.prototype=Object.create(n&&n.prototype,{constructor:{value:t,writable:!0,configurable:!0}}),n&&u(t,n)}(o,t);var r=a(o);function o(){return n(this,o),r.apply(this,arguments)}return e(o,null,[{key:"build",value:function(t){var n=l(i(o),"build",this).call(this,t,Vt);n.el,n.options;var r=n.player;return function(t,n,r){t.play()}(r),r}}]),o}(V)}));
__SVGATOR_PLAYER__.build({"root":"e4kqluff6pvn1","animations":[{"duration":3000,"direction":1,"iterations":"indefinite","fill":1,"alternate":false,"elements":{"e4kqluff6pvn3":{"transform":{"data":{"o":{"x":399.6518062516416,"y":299.999999995781,"type":"corner"}},"keys":{"s":[{"t":0,"v":{"x":1,"y":1}},{"t":2000,"v":{"x":10,"y":10}}]}}}}}],"options":{"start":"load","hover":"freeze","click":"freeze","scroll":25,"font":"embed","exportedIds":"unique","title":"bfs_graph"},"animationSettings":{"duration":3000,"direction":1,"iterations":1,"fill":1,"alternate":false}})]]></script></svg>