<svg width="0" height="0" class="hidden">
  <symbol xmlns="http://www.w3.org/2000/svg" shape-rendering="geometricPrecision" text-rendering="geometricPrecision" viewBox="0 0 800 600" id="bfs_graph_2">
    <defs>
      <radialGradient id="a" cx="0" cy="0" r="1" spreadMethod="pad" gradientUnits="userSpaceOnUse" gradientTransform="scale(59.5768)">
        <stop offset="0%" stop-color="#004EBB"></stop>
        <stop offset="100%" stop-color="#11DFFF"></stop>
      </radialGradient>
    </defs>
    <rect width="716.166" height="541.593" rx="0" ry="0" transform="translate(60.317 12.819)" clip-rule="evenodd" fill-rule="evenodd" stroke-linecap="round" stroke-linejoin="round" stroke-miterlimit="1.5"></rect>
    <circle r="28.129" transform="translate(399.652 300)" clip-rule="evenodd" fill="url(#a)" fill-rule="evenodd" stroke-linecap="round" stroke-linejoin="round" stroke-miterlimit="1.5"></circle>
    <path d="M800 0H0v600h800V0zM451.8 89.751c-.516.024-1.035.037-1.556.037-17.732 0-32.128-14.396-32.128-32.128s14.396-32.127 32.128-32.127c17.731 0 32.127 14.395 32.127 32.127 0 11.737-6.307 22.012-15.712 27.617l32.806 96.513a32.309 32.309 0 014.301-.286c17.731 0 32.127 14.396 32.127 32.127a31.968 31.968 0 01-5.399 17.823l91.103 104.779a31.951 31.951 0 0114.678-3.547c17.732 0 32.128 14.396 32.128 32.128 0 17.731-14.396 32.127-32.128 32.127s-32.128-14.396-32.128-32.127a31.961 31.961 0 015.775-18.372l-90.893-104.538a31.966 31.966 0 01-15.263 3.855 31.966 31.966 0 01-18.635-5.961l-55.956 46.739A31.97 31.97 0 01432.128 300c0 15.058-10.382 27.71-24.374 31.184v75.226c13.992 3.474 24.374 16.126 24.374 31.184 0 2.936-.395 5.781-1.134 8.484l76.214 38.625c5.779-5.571 13.637-8.999 22.29-8.999 17.732 0 32.128 14.396 32.128 32.127 0 17.732-14.396 32.128-32.128 32.128-17.731 0-32.127-14.396-32.127-32.128 0-3.466.55-6.805 1.567-9.933l-75.549-38.288c-5.86 6.223-14.174 10.112-23.389 10.112-15.099 0-27.778-10.438-31.211-24.485l-141.971 1.386c-3.85 13.428-16.229 23.267-30.888 23.267-17.731 0-32.127-14.396-32.127-32.128s14.396-32.128 32.127-32.128c1.098 0 2.183.056 3.25.163l55.372-148.029c-7.627-5.876-12.545-15.1-12.545-25.464 0-17.732 14.396-32.128 32.127-32.128 17.732 0 32.128 14.396 32.128 32.128 0 2.822-.365 5.561-1.049 8.168l70.066 39.017c5.895-7.096 14.784-11.617 24.721-11.617a31.981 31.981 0 0119.462 6.571l55.576-46.421a31.97 31.97 0 01-3.4-14.391c0-10.745 5.287-20.265 13.399-26.099L451.8 89.751zm-154.044 164.32l70.779 39.413a32.233 32.233 0 00-.663 6.516c0 15.058 10.382 27.71 24.374 31.184v75.226c-11.471 2.847-20.515 11.864-23.402 23.317l-141.477 1.382c-1.757-8.332-6.747-15.477-13.593-20.061l55.01-147.061c1.74.292 3.528.444 5.35.444 9.338 0 17.75-3.992 23.622-10.36z" clip-rule="evenodd" fill="#EEE" fill-rule="evenodd" stroke-linecap="round" stroke-linejoin="round" stroke-miterlimit="1.5"></path>
    <path d="M451.8 89.751c-.516.024-1.035.037-1.556.037-17.732 0-32.128-14.396-32.128-32.128s14.396-32.127 32.128-32.127c17.731 0 32.127 14.395 32.127 32.127 0 11.737-6.307 22.012-15.712 27.617l32.806 96.513a32.309 32.309 0 014.301-.286c17.731 0 32.127 14.396 32.127 32.127a31.968 31.968 0 01-5.399 17.823l91.103 104.779a31.951 31.951 0 0114.678-3.547c17.732 0 32.128 14.396 32.128 32.128 0 17.731-14.396 32.127-32.128 32.127s-32.128-14.396-32.128-32.127a31.961 31.961 0 015.775-18.372l-90.893-104.538a31.966 31.966 0 01-15.263 3.855 31.966 31.966 0 01-18.635-5.961l-55.956 46.739A31.97 31.97 0 01432.128 300c0 15.058-10.382 27.71-24.374 31.184v75.226c13.992 3.474 24.374 16.126 24.374 31.184 0 2.936-.395 5.781-1.134 8.484l76.214 38.625c5.779-5.571 13.637-8.999 22.29-8.999 17.732 0 32.128 14.396 32.128 32.127 0 17.732-14.396 32.128-32.128 32.128-17.731 0-32.127-14.396-32.127-32.128 0-3.466.55-6.805 1.567-9.933l-75.549-38.288c-5.86 6.223-14.174 10.112-23.389 10.112-15.099 0-27.778-10.438-31.211-24.485l-141.971 1.386c-3.85 13.428-16.229 23.267-30.888 23.267-17.731 0-32.127-14.396-32.127-32.128s14.396-32.128 32.127-32.128c1.098 0 2.183.056 3.25.163l55.372-148.029c-7.627-5.876-12.545-15.1-12.545-25.464 0-17.732 14.396-32.128 32.127-32.128 17.732 0 32.128 14.396 32.128 32.128 0 2.822-.365 5.561-1.049 8.168l70.066 39.017c5.895-7.096 14.784-11.617 24.721-11.617a31.981 31.981 0 0119.462 6.571l55.576-46.421a31.97 31.97 0 01-3.4-14.391c0-10.745 5.287-20.265 13.399-26.099L451.8 89.751zm-154.044 164.32l70.779 39.413a32.233 32.233 0 00-.663 6.516c0 15.058 10.382 27.71 24.374 31.184v75.226c-11.471 2.847-20.515 11.864-23.402 23.317l-141.477 1.382c-1.757-8.332-6.747-15.477-13.593-20.061l55.01-147.061c1.74.292 3.528.444 5.35.444 9.338 0 17.75-3.992 23.622-10.36z" clip-rule="evenodd" fill="none" fill-rule="evenodd" stroke="#000" stroke-width="7.5" stroke-linecap="round" stroke-linejoin="round" stroke-miterlimit="1.5"></path>
    <path d="M400.317 286.457c2.165 0 3.982.58 5.451 1.7a10.245 10.245 0 013.363 4.91 24.24 24.24 0 011.121 7.771 24.355 24.355 0 01-1.12 7.81 10.167 10.167 0 01-3.364 4.948 8.505 8.505 0 01-5.451 1.7 8.621 8.621 0 01-5.49-1.7 10.167 10.167 0 01-3.363-4.949 24.394 24.394 0 01-1.082-7.809 24.355 24.355 0 011.082-7.77 10.245 10.245 0 013.363-4.91 8.776 8.776 0 015.49-1.701zm0 4.562a2.938 2.938 0 00-2.32.966 6.572 6.572 0 00-1.314 3.131 52.5 52.5 0 00-.193 11.25l6.726-14.033a2.706 2.706 0 00-1.16-1.044 4.562 4.562 0 00-1.739-.27zm0 19.793a3.015 3.015 0 002.28-.966 6.959 6.959 0 001.315-3.17 33.44 33.44 0 00.387-5.838l-.077-3.827-6.34 13.067a2.977 2.977 0 001.043.54c.387.117.85.194 1.392.194zM457.564 61.27h2.783v4.716h-2.783v5.76h-5.992l-.039-5.76h-11.366v-4.175l7.616-18.247 5.335 1.971-6.495 15.735h4.949l.696-6.611h5.296v6.61zm187.881 290.308l-.696 4.484h-10.051v5.915a12.216 12.216 0 012.01-.657 13.067 13.067 0 012.05-.193c1.43 0 2.744.348 3.904 1.082 1.16.735 2.087 1.779 2.783 3.132a9.974 9.974 0 011.044 4.716 9.317 9.317 0 01-5.18 8.428 11.868 11.868 0 01-5.606 1.237 11.173 11.173 0 01-9.124-4.098l3.596-3.286a6.727 6.727 0 002.28 1.933 5.644 5.644 0 002.745.657 5.412 5.412 0 002.552-.58 4.137 4.137 0 001.662-1.7 4.832 4.832 0 00.619-2.514c0-1.623-.348-2.822-1.005-3.556-.657-.773-1.547-1.121-2.706-1.121a7.075 7.075 0 00-3.364.889h-4.252v-14.768h16.74zM538.702 498.02l-10.631 23.852-5.954-1.817 10.245-21.572H520.3v-4.716h18.402v4.252zm-340.505-65.257a7.732 7.732 0 013.943 1.044c1.16.734 2.088 1.778 2.745 3.131a11.366 11.366 0 011.005 4.91c0 1.856-.386 3.518-1.198 5.064a9.2 9.2 0 01-8.544 4.91 9.394 9.394 0 01-5.799-1.74 10.245 10.245 0 01-3.363-4.677 22.268 22.268 0 01.348-14.846 12.564 12.564 0 014.136-5.567 10.322 10.322 0 016.34-2.01c2.281 0 4.292.58 5.993 1.778l-2.397 3.79a6.03 6.03 0 00-3.44-1.083 4.253 4.253 0 00-2.707.889 6.186 6.186 0 00-1.933 2.667 11.946 11.946 0 00-.89 4.214 7.964 7.964 0 015.761-2.474zm-1.972 14.613a2.822 2.822 0 002.552-1.469 6.959 6.959 0 00.85-3.711 7.577 7.577 0 00-.773-3.905 2.552 2.552 0 00-2.28-1.237 4.832 4.832 0 00-2.166.541 6.379 6.379 0 00-1.971 1.585 23.892 23.892 0 00.425 4.6 5.335 5.335 0 001.16 2.668 2.783 2.783 0 002.203.928zm311.831-246.582v22.731h5.141v4.755h-17.86v-4.755h6.61V206.98l-5.644 3.518-2.667-4.291 8.892-5.412h5.528zm-108.79 223.7a11.598 11.598 0 015.141 1.082 7.384 7.384 0 014.33 6.804 10.322 10.322 0 01-1.005 4.369 20.644 20.644 0 01-3.402 4.678 86.365 86.365 0 01-6.688 6.456h11.752l-.696 4.793h-18.247v-4.445c3.209-3.132 5.644-5.567 7.307-7.307a29.188 29.188 0 003.518-4.523 6.61 6.61 0 001.082-3.48c0-1.12-.309-2.01-.966-2.628a3.634 3.634 0 00-2.706-.967 5.49 5.49 0 00-2.706.657 6.765 6.765 0 00-2.243 2.127l-3.827-2.9a11.173 11.173 0 013.905-3.48 11.366 11.366 0 015.45-1.236zM273.18 218.76a11.598 11.598 0 014.987.966 7.307 7.307 0 013.247 2.552 6.03 6.03 0 011.121 3.518 6.186 6.186 0 01-1.469 4.214 8.698 8.698 0 01-4.136 2.397c4.33.58 6.495 2.86 6.495 6.804 0 1.546-.464 2.976-1.315 4.252a8.544 8.544 0 01-3.711 3.016 12.758 12.758 0 01-5.606 1.12 12.178 12.178 0 01-9.703-4.097l3.556-3.286a7.19 7.19 0 005.722 2.59 5.142 5.142 0 003.363-1.044 3.75 3.75 0 001.238-2.977c0-1.43-.387-2.474-1.16-3.131-.812-.657-1.972-.967-3.48-.967h-2.512l.734-4.33h1.778a4.678 4.678 0 003.016-.927 3.286 3.286 0 001.121-2.668 3.015 3.015 0 00-1.083-2.435 4.562 4.562 0 00-2.899-.89 7.19 7.19 0 00-2.9.58 10.709 10.709 0 00-2.59 1.779l-3.208-3.325a12.99 12.99 0 019.394-3.711z" stroke-linecap="round" stroke-linejoin="round" stroke-miterlimit="1.5" clip-rule="evenodd"></path>
  </symbol>
</svg>